<?xml version="1.0" encoding="utf-8"?>
<!-- Generator: Adobe Illustrator 27.5.0, SVG Export Plug-In . SVG Version: 6.00 Build 0)  -->
<svg version="1.1" id="레이어_1" xmlns="http://www.w3.org/2000/svg" xmlns:xlink="http://www.w3.org/1999/xlink" x="0px"
	 y="0px" viewBox="0 0 300 300" style="enable-background:new 0 0 300 300;" xml:space="preserve">
<style type="text/css">
	.st0{fill:url(#SVGID_1_);}
</style>
<g>
	<linearGradient id="SVGID_1_" gradientUnits="userSpaceOnUse" x1="69.1689" y1="154.4352" x2="172.5753" y2="154.4352">
		<stop  offset="0" style="stop-color:#02A6FE"/>
		<stop  offset="1" style="stop-color:#E9FF20"/>
	</linearGradient>
	<polygon class="st0" points="69.17,176.86 83.98,176.86 83.98,191.67 172.58,132.01 157.77,132.01 157.77,117.2 	"/>
	<path d="M0,117.2h32.12c10.07,0,18.23,3.15,24.45,9.44c6.22,6.3,9.34,15.42,9.34,27.38c0,5.49-0.7,10.52-2.09,15.07
		c-1.39,4.55-3.51,8.53-6.36,11.94c-2.85,3.4-6.4,6.03-10.64,7.87c-4.24,1.85-9.14,2.77-14.7,2.77H0V117.2z M16.37,177.9h14.6
		c2.5,0,4.85-0.4,7.04-1.2c2.19-0.8,4.15-2.09,5.89-3.86c1.74-1.77,3.11-4.1,4.12-6.98c1.01-2.89,1.52-6.31,1.52-10.28
		c0-7.99-1.64-14.09-4.91-18.3c-3.27-4.21-8.79-6.31-16.58-6.31H16.37V177.9z"/>
	<path d="M97.07,117.2h16.37v60.7h36.29v13.77H97.07V117.2z"/>
	<path d="M157.77,139.75h14.81v51.92h-14.81V139.75z"/>
	<path d="M184.25,139.77h14.07v7.51h0.31c1.81-2.92,4.19-5.14,7.15-6.68c2.95-1.53,6.07-2.29,9.34-2.29c3.82,0,7.02,0.53,9.59,1.56
		c2.57,1.04,4.61,2.52,6.1,4.44c1.49,1.91,2.54,4.2,3.13,6.88c0.59,2.67,0.88,5.79,0.88,9.33v31.14h-14.81v-28.43
		c0-4.52-0.73-7.86-2.19-10.01c-1.46-2.16-3.9-3.23-7.3-3.23c-4.03,0-6.95,1.21-8.76,3.6c-1.81,2.4-2.72,6.35-2.72,11.84v26.24
		h-14.8V139.77z"/>
	<path d="M278.1,158.53l19.29-18.77h-17.47l-17.64,18.42v-41.02h-14.86v74.48h14.86v-17.56l5.74-5.56l14.17,23.12H300L278.1,158.53z
		"/>
	<rect x="157.77" y="117.2" width="14.81" height="14.81"/>
	<rect x="69.17" y="176.86" width="14.81" height="14.81"/>
</g>
</svg>
