<?xml version="1.0" encoding="utf-8"?>
<!-- Generator: Adobe Illustrator 27.5.0, SVG Export Plug-In . SVG Version: 6.00 Build 0)  -->
<svg version="1.1" id="레이어_1" xmlns="http://www.w3.org/2000/svg" xmlns:xlink="http://www.w3.org/1999/xlink" x="0px"
	 y="0px" viewBox="0 0 414 282.65" style="enable-background:new 0 0 414 282.65;" xml:space="preserve">
<style type="text/css">
	.st0{fill:#8071FC;}
</style>
<g>
	<g>
		<path class="st0" d="M71.87,207.68c-3.44-5.12-4.61-11.71-2.6-18.06c3.5-11.07,15.3-17.19,26.35-13.69l203.63,64.44
			c11.05,3.5,17.19,15.3,13.69,26.35c-3.5,11.07-15.3,17.19-26.35,13.69L82.96,215.98C78.25,214.49,74.43,211.49,71.87,207.68z"/>
	</g>
	<path d="M95.62,114.32c21.38,5.86,43.1,15.21,57.76,39.85c10.53,17.77,14.34,39.18,7.41,64.45c-6.98,25.49-20.78,41.55-37.81,51.26
		c-28.53,16.46-56.93,10.52-70.53,6.79L0,262.3l44.38-162.01L95.62,114.32z M46.05,240.96l9.95,2.72c7.77,2.13,24.98,6.08,39.91-0.8
		c10.74-4.9,21.57-16.82,26.49-34.78c4.79-17.5,0.81-30.61-3.77-38.64c-8.82-15.47-24.13-21.49-35.56-24.62l-9.95-2.72L46.05,240.96
		z"/>
	<path d="M412.03,34.12l-47.47,126.63l48.81,18.3l-11.5,30.66l-85.12-31.91l58.97-157.29L412.03,34.12z"/>
	<path d="M279.07,167.4v36.25h-13.33c14.09,11.09,16.36,24.18,16.36,34.76c0,9.82-1.76,22.66-11.34,32.23
		c-10.58,10.58-23.93,11.34-32.99,11.34h-71.01v-36.27l57.66,0c7.32,0,16.63-0.25,22.41-6.05c2.79-2.77,5.04-7.3,5.04-13.84
		c0-7.55-3.01-12.34-6.05-15.11c-6.03-6.05-14.09-7.05-21.41-7.05l-57.66,0V167.4L279.07,167.4z"/>
	<path d="M310.7,146.47l-67.01-70.09l-0.95,58.05l-34.4,32.89l3.45-73.66l-83.79-4.91L163.3,55L228.03,60l-33.41-34.95L220.82,0
		L336.9,121.41L310.7,146.47z"/>
	<path d="M21,83.66c11.76,0,21,9.24,21,21s-9.24,20.98-21,20.98s-21-9.22-21-20.98S9.24,83.66,21,83.66z"/>
	<path d="M311.09,166.74l53.98,98.49l-31.79,17.42l-53.98-98.49L311.09,166.74z"/>
	<path d="M172.72,124.75c11.75,0,20.99,9.24,20.99,20.99c0,11.75-9.24,21.01-20.99,21.01c-11.75,0-21.01-9.26-21.01-21.01
		C151.71,133.99,160.97,124.75,172.72,124.75z"/>
</g>
</svg>
