<?xml version="1.0" encoding="utf-8"?>
<!-- Generator: Adobe Illustrator 26.5.3, SVG Export Plug-In . SVG Version: 6.00 Build 0)  -->
<svg version="1.1" id="레이어_1" xmlns="http://www.w3.org/2000/svg" xmlns:xlink="http://www.w3.org/1999/xlink" x="0px"
	 y="0px" viewBox="0 0 300 300" style="enable-background:new 0 0 300 300;" xml:space="preserve">
<style type="text/css">
	.st0{fill:#8071FC;}
</style>
<g>
	<g>
		<path class="st0" d="M77.8,191.32c-2.92,0-5.81-1.28-7.77-3.74c-3.42-4.3-2.71-10.54,1.58-13.95l79.01-62.9
			c4.29-3.41,10.54-2.71,13.95,1.58c3.42,4.3,2.71,10.54-1.58,13.95l-79.01,62.9C82.16,190.61,79.97,191.32,77.8,191.32z"/>
	</g>
	<path d="M25.12,111.89c10.48,0,21.55,1.55,31.32,10.96c7.02,6.79,11.43,16.08,11.43,28.47c0,12.5-4.29,21.54-10.84,28.1
		c-10.96,11.07-24.65,11.91-31.32,11.91H0v-79.43H25.12z M18.33,175.83h4.88c3.81,0,12.15-0.35,18.1-5.35
		c4.29-3.58,7.74-10.36,7.74-19.17c0-8.58-3.45-14.06-6.54-17.15c-5.95-5.95-13.69-6.79-19.29-6.79h-4.88V175.83z"/>
	<path d="M118.74,111.89v63.94h24.65v15.48h-42.98v-79.43H118.74z"/>
	<path d="M175.46,138.21h17.14v6.3c5.25-6.66,11.43-7.74,16.43-7.74c4.64,0,10.71,0.83,15.24,5.36c5,5,5.36,11.31,5.36,15.6v33.58
		h-17.15v-27.26c0-3.46-0.12-7.86-2.86-10.6c-1.31-1.32-3.45-2.39-6.54-2.39c-3.57,0-5.84,1.43-7.15,2.86
		c-2.86,2.85-3.34,6.66-3.34,10.12v27.26h-17.14V138.21z"/>
	<path d="M256.42,111.89v45.85l19.29-19.53h22.5l-25.25,24.04L300,191.32h-23.09l-20.49-22.86v22.86h-17.14v-79.43H256.42z"/>
	<path d="M77.8,171.47c5.56,0,9.93,4.37,9.93,9.93s-4.37,9.92-9.93,9.92c-5.56,0-9.93-4.36-9.93-9.92S72.24,171.47,77.8,171.47z"/>
	<path d="M156.81,108.56c5.55,0,9.92,4.37,9.92,9.92c0,5.55-4.37,9.93-9.92,9.93s-9.93-4.38-9.93-9.93
		C146.87,112.93,151.25,108.56,156.81,108.56z M165.38,138.21v53.1h-17.14v-53.1H165.38z"/>
</g>
</svg>
